<svg id="Layer_1" data-name="Layer 1" xmlns="http://www.w3.org/2000/svg" viewBox="0 0 500 500">
  <defs>
    <style>
      .cls-1 {
        fill: #d58b5e;
      }
    </style>
  </defs>
  <g>
    <path class="cls-1" d="m182.49,345.55v27h-104.14v-150h29.36v123h74.78Z"/>
    <path class="cls-1" d="m375.17,222.55h-38.13l-6.58,17.16-6.63,17.32-5.19,13.56-3.57,9.33-15.37,40.13h-.02c-.1.27-.19.55-.3.83-.13.37-.26.72-.42,1.09-5.63,13.98-21.28,25.92-43,25.92-29.56,0-48.42-23.78-48.42-50.78s18.85-49.93,48.42-49.93c13.5,0,24.67,4.77,32.52,11.71l20.47-20.47c-12.58-11.07-30.5-18.88-53.2-18.88-44.56,0-78.21,33.64-78.21,77.79s33.64,78.21,78.85,78.21c8.39,0,16.14-1.08,23.21-3.02.69-.19,1.37-.39,2.05-.59,20.61-6.26,36.94-22.09,44.56-42.23l.99-2.62,4.93-13.04h-.04l23.99-63.42,24.01,63.42h-.04l9.8,25.92h.1l12.21,32.58h30.64l-57.64-150Z"/>
  </g>
  <g>
    <polygon class="cls-1" points="312.38 235.01 302.85 225.49 323.53 204.81 302.85 184.12 312.38 174.6 342.58 204.81 312.38 235.01"/>
    <polygon points="358.07 206.64 352.25 200.82 364.88 188.19 352.25 175.56 358.07 169.74 376.52 188.19 358.07 206.64"/>
    <polygon class="cls-1" points="329.87 169.1 325.75 164.98 334.7 156.03 325.75 147.08 329.87 142.96 342.95 156.03 329.87 169.1"/>
    <polygon points="414.04 150.6 409.92 146.48 418.87 137.53 409.92 128.58 414.04 124.46 427.11 137.53 414.04 150.6"/>
    <polygon class="cls-1" points="385.25 169.1 381.13 164.98 390.08 156.03 381.13 147.08 385.25 142.96 398.33 156.03 385.25 169.1"/>
    <polygon class="cls-1" points="285.16 204.03 265.08 183.95 285.16 163.88 291.49 170.21 277.75 183.95 291.49 197.7 285.16 204.03"/>
    <polygon class="cls-1" points="398.22 199.17 383 183.95 398.22 168.74 403.02 173.53 392.6 183.95 403.02 194.37 398.22 199.17"/>
  </g>
</svg>